<?xml version="1.0" encoding="utf-8"?>
<!-- Generator: Adobe Illustrator 16.0.0, SVG Export Plug-In . SVG Version: 6.00 Build 0)  -->
<!DOCTYPE svg PUBLIC "-//W3C//DTD SVG 1.1//EN" "http://www.w3.org/Graphics/SVG/1.1/DTD/svg11.dtd">
<svg version="1.1" id="圖層_1" xmlns="http://www.w3.org/2000/svg" xmlns:xlink="http://www.w3.org/1999/xlink" x="0px" y="0px"
	 width="100px" height="100px" viewBox="0 0 100 100" enable-background="new 0 0 100 100" xml:space="preserve">
<path fill="#FFFFFF" d="M0.493,59.912c0,0,0.981,0.159,2.7,0.437c0.901,0.158,1.804,0.258,3.194,0.546
	c1.342,0.277,2.854,0.589,4.506,0.928c1.56,0.43,3.25,0.893,5.036,1.382c1.76,0.582,3.604,1.202,5.48,1.905
	c1.857,0.812,3.789,1.495,5.663,2.499c0.937,0.474,1.879,0.953,2.827,1.432l2.756,1.635c0.924,0.513,1.796,1.155,2.666,1.766
	c0.862,0.627,1.751,1.168,2.547,1.877c0.804,0.674,1.601,1.341,2.39,1.998c0.729,0.728,1.45,1.445,2.16,2.15
	c0.722,0.673,1.321,1.478,1.929,2.219c0.599,0.749,1.209,1.443,1.672,2.249c0.482,0.769,0.95,1.516,1.402,2.241
	c0.359,0.773,0.709,1.524,1.043,2.241c0.365,0.688,0.549,1.437,0.756,2.12c0.19,0.689,0.418,1.316,0.537,1.933
	c0.146,1.265,0.35,2.324,0.361,3.209C50.042,96.431,50,97.433,50,97.433s-0.212-0.961-0.583-2.646
	c-0.229-0.816-0.69-1.764-1.104-2.832c-0.252-0.52-0.616-1.038-0.941-1.593c-0.341-0.55-0.651-1.139-1.146-1.662
	c-0.447-0.538-0.913-1.096-1.395-1.675c-0.553-0.513-1.124-1.044-1.712-1.59c-0.547-0.563-1.248-1.023-1.92-1.518
	c-0.681-0.485-1.327-1.017-2.111-1.425c-0.748-0.431-1.509-0.868-2.278-1.311c-0.81-0.375-1.628-0.754-2.453-1.139
	c-0.794-0.411-1.705-0.668-2.554-1.001c-0.863-0.312-1.704-0.65-2.613-0.873l-2.65-0.746c-0.898-0.188-1.796-0.375-2.684-0.562
	c-1.744-0.42-3.561-0.548-5.238-0.813c-1.715-0.164-3.376-0.266-4.933-0.36c-1.565-0.009-3.044-0.016-4.41-0.023
	c-1.294,0.075-2.481,0.146-3.533,0.208c-1.001,0.041-2.2,0.205-3.02,0.273C0.99,76.323,0,76.422,0,76.422L0.493,59.912z
	 M99.507,59.912c0,0-0.981,0.159-2.7,0.437c-0.901,0.158-1.806,0.258-3.194,0.546c-1.343,0.277-2.855,0.589-4.506,0.928
	c-1.561,0.43-3.25,0.893-5.036,1.382c-1.761,0.582-3.604,1.202-5.481,1.905c-1.856,0.812-3.79,1.495-5.664,2.499
	c-0.935,0.474-1.877,0.953-2.824,1.432l-2.756,1.635c-0.927,0.513-1.797,1.155-2.667,1.762c-0.863,0.631-1.75,1.172-2.548,1.881
	c-0.804,0.674-1.6,1.341-2.389,1.998c-0.73,0.728-1.45,1.445-2.16,2.15c-0.724,0.672-1.323,1.478-1.93,2.219
	c-0.599,0.749-1.209,1.443-1.671,2.249c-0.481,0.769-0.95,1.516-1.401,2.241c-0.362,0.773-0.71,1.524-1.044,2.241
	c-0.365,0.688-0.55,1.437-0.757,2.12c-0.19,0.689-0.418,1.316-0.537,1.933c-0.146,1.265-0.35,2.324-0.361,3.209
	C49.957,96.431,50,97.433,50,97.433s0.212-0.961,0.583-2.646c0.229-0.818,0.691-1.764,1.104-2.832
	c0.252-0.52,0.616-1.038,0.94-1.593c0.341-0.55,0.653-1.139,1.147-1.662c0.447-0.538,0.913-1.096,1.396-1.675
	c0.551-0.513,1.123-1.044,1.71-1.59c0.546-0.563,1.249-1.023,1.921-1.518c0.68-0.487,1.326-1.017,2.111-1.425
	c0.748-0.431,1.508-0.868,2.277-1.311c0.81-0.375,1.63-0.754,2.453-1.139c0.794-0.411,1.705-0.668,2.555-1.001
	c0.862-0.312,1.703-0.65,2.612-0.873l2.649-0.746c0.899-0.188,1.797-0.375,2.684-0.562c1.743-0.42,3.563-0.548,5.24-0.813
	c1.714-0.164,3.376-0.266,4.934-0.36c1.563-0.009,3.042-0.016,4.409-0.023c1.294,0.075,2.48,0.146,3.533,0.208
	c1.001,0.041,2.199,0.205,3.02,0.273C99.01,76.323,100,76.422,100,76.422L99.507,59.912z M75.587,28.155
	C75.587,14.023,64.13,2.567,50,2.567c-14.132,0-25.587,11.456-25.587,25.588C24.413,42.285,50,78.671,50,78.671
	S75.587,42.285,75.587,28.155z M50,43.431c-8.437,0-15.276-6.84-15.276-15.276c0-8.437,6.84-15.277,15.276-15.277
	s15.276,6.84,15.276,15.277C65.276,36.591,58.436,43.431,50,43.431z"/>
</svg>
